<svg xmlns="http://www.w3.org/2000/svg" viewBox="0 0 512 512" width="512" height="512">
  <defs>
    <linearGradient id="squareGrad" x1="0" y1="0" x2="1" y2="1">
      <stop offset="0" stop-color="#1f5fa8"/>
      <stop offset="1" stop-color="#123a6b"/>
    </linearGradient>
    <clipPath id="circleClip">
      <circle cx="256" cy="256" r="256"/>
    </clipPath>
  </defs>

  <circle cx="256" cy="256" r="256" fill="#1a8fe3"/>

  <g clip-path="url(#circleClip)">
    <polygon points="150,120 400,120 400,400 60,400" fill="#000000" fill-opacity=".16"/>
  </g>

  <rect x="120" y="118" width="272" height="278" rx="10" fill="#ffffff"/>

  <rect x="150" y="98" width="16" height="42" rx="8" fill="#ffffff"/>
  <rect x="248" y="98" width="16" height="42" rx="8" fill="#ffffff"/>
  <rect x="346" y="98" width="16" height="42" rx="8" fill="#ffffff"/>
  <rect x="153" y="98" width="10" height="42" rx="5" fill="#1a8fe3"/>
  <rect x="251" y="98" width="10" height="42" rx="5" fill="#1a8fe3"/>
  <rect x="349" y="98" width="10" height="42" rx="5" fill="#1a8fe3"/>

  <rect x="142" y="168" width="228" height="30" fill="#123a6b"/>

  <g fill="url(#squareGrad)">
    <rect x="142" y="222" width="38" height="34"/>
    <rect x="190" y="222" width="38" height="34"/>
    <rect x="238" y="222" width="38" height="34"/>
    <rect x="286" y="222" width="38" height="34"/>
    <rect x="334" y="222" width="38" height="34"/>

    <rect x="142" y="270" width="38" height="34"/>
    <rect x="190" y="270" width="38" height="34"/>
    <rect x="238" y="270" width="38" height="34"/>
    <rect x="286" y="270" width="38" height="34"/>
    <rect x="334" y="270" width="38" height="34"/>

    <rect x="142" y="318" width="38" height="34"/>
    <rect x="190" y="318" width="38" height="34"/>
    <rect x="238" y="318" width="38" height="34"/>
    <rect x="286" y="318" width="38" height="34"/>
    <rect x="334" y="318" width="38" height="34"/>
  </g>
</svg>
